<?xml version="1.0" encoding="UTF-8" standalone="no"?>
<!DOCTYPE svg PUBLIC "-//W3C//DTD SVG 1.1//EN" "http://www.w3.org/Graphics/SVG/1.1/DTD/svg11.dtd">
<svg width="100%" height="100%" viewBox="0 0 512 512" version="1.1" xmlns="http://www.w3.org/2000/svg" xmlns:xlink="http://www.w3.org/1999/xlink" xml:space="preserve" xmlns:serif="http://www.serif.com/" style="fill-rule:evenodd;clip-rule:evenodd;stroke-linejoin:round;stroke-miterlimit:2;">
    <g transform="matrix(-1,0,0,1,511.994,0)">
        <g id="filled">
            <path d="M504.485,55.515C506.735,57.764 508,60.819 508,64L508,160C508,163.181 506.735,166.236 504.485,168.485C490.067,182.904 469.285,192.965 442.419,198.61L427.97,400.855C427.524,407.1 422.261,412 416,412L404.563,412C407.189,424.043 402.398,434.719 398.798,442.732C392.479,456.788 387.915,466.944 408.485,487.515C410.692,489.759 411.931,492.783 411.931,495.931C411.931,502.514 406.514,507.931 399.931,507.931C396.783,507.931 393.759,506.692 391.515,504.485C359.236,472.207 369.871,448.548 376.907,432.893C381.459,422.767 383.429,418.364 378.629,412L368,412C361.417,412 356,406.583 356,400C356,399.79 356.006,399.58 356.017,399.37C356.798,371.485 355.1,343.585 350.942,316L320,316C313.417,316 308,310.583 308,304L308,256C308,249.417 313.417,244 320,244L332.488,244C325.74,226.8 317.107,210.456 306.053,196.409C286.41,193.782 264.992,190.705 243.12,187.562C189.879,179.911 134.826,172 112,172C69.629,172 24.924,216.048 24.478,216.493C17.346,224.057 3.669,218.354 4,208L4,16C3.654,5.636 17.386,-0.062 24.478,7.507C24.924,7.952 69.629,52 112,52C123.491,52 155.671,47.11 192.933,41.448C255.821,31.893 334.088,20 384,20C440.383,20 480.92,31.949 504.485,55.515Z" style="fill:rgb(51,51,51);stroke:rgb(51,51,51);stroke-width:1px;"/>
        </g>
    </g>
</svg>
